<?xml version="1.0" encoding="UTF-8" standalone="no"?>
<svg
   xmlns:dc="http://purl.org/dc/elements/1.1/"
   xmlns:cc="http://creativecommons.org/ns#"
   xmlns:rdf="http://www.w3.org/1999/02/22-rdf-syntax-ns#"
   xmlns:svg="http://www.w3.org/2000/svg"
   xmlns="http://www.w3.org/2000/svg"
   xmlns:sodipodi="http://sodipodi.sourceforge.net/DTD/sodipodi-0.dtd"
   xmlns:inkscape="http://www.inkscape.org/namespaces/inkscape"
   version="1.1"
   x="0px"
   y="0px"
   viewBox="0 0 72.151001 61.438"
   enable-background="new 0 0 90 90"
   xml:space="preserve"
   id="svg2"
   inkscape:version="0.91 r13725"
   sodipodi:docname="experience.svg"
   width="72.151001"
   height="61.438"><metadata
     id="metadata28"><rdf:RDF><cc:Work
         rdf:about=""><dc:format>image/svg+xml</dc:format><dc:type
           rdf:resource="http://purl.org/dc/dcmitype/StillImage" /><dc:title /></cc:Work></rdf:RDF></metadata><defs
     id="defs26" /><sodipodi:namedview
     pagecolor="#ffffff"
     bordercolor="#666666"
     borderopacity="1"
     objecttolerance="10"
     gridtolerance="10"
     guidetolerance="10"
     inkscape:pageopacity="0"
     inkscape:pageshadow="2"
     inkscape:window-width="1600"
     inkscape:window-height="836"
     id="namedview24"
     showgrid="false"
     fit-margin-top="0"
     fit-margin-left="0"
     fit-margin-right="0"
     fit-margin-bottom="0"
     inkscape:zoom="4.1955556"
     inkscape:cx="29.812756"
     inkscape:cy="48.577821"
     inkscape:window-x="0"
     inkscape:window-y="27"
     inkscape:window-maximized="1"
     inkscape:current-layer="svg2" /><path
     stroke-miterlimit="10"
     d="M -43.139,-44.161"
     id="path4"
     inkscape:connector-curvature="0"
     style="fill:none;stroke:#000000;stroke-width:3;stroke-linecap:round;stroke-linejoin:round;stroke-miterlimit:10" /><g
     id="g6"
     transform="translate(-8.964,-19.051)"
     style="fill:#2e2e2e;fill-opacity:1"><path
       d="m 38.484,35.428 10.211,0 c 0.828,0 1.5,-0.671 1.5,-1.5 0,-0.829 -0.672,-1.5 -1.5,-1.5 l -10.211,0 c -0.828,0 -1.5,0.671 -1.5,1.5 0,0.829 0.672,1.5 1.5,1.5 z"
       id="path8"
       inkscape:connector-curvature="0"
       style="fill:#2e2e2e;fill-opacity:1" /><path
       d="m 38.484,39.257 10.211,0 c 0.828,0 1.5,-0.671 1.5,-1.5 0,-0.829 -0.672,-1.5 -1.5,-1.5 l -10.211,0 c -0.828,0 -1.5,0.671 -1.5,1.5 0,0.829 0.672,1.5 1.5,1.5 z"
       id="path10"
       inkscape:connector-curvature="0"
       style="fill:#2e2e2e;fill-opacity:1" /><path
       d="m 61.998,49.73 c 0,0.829 0.672,1.5 1.5,1.5 l 10.211,0 c 0.828,0 1.5,-0.671 1.5,-1.5 0,-0.829 -0.672,-1.5 -1.5,-1.5 l -10.211,0 c -0.829,0 -1.5,0.671 -1.5,1.5 z"
       id="path12"
       inkscape:connector-curvature="0"
       style="fill:#2e2e2e;fill-opacity:1" /><path
       d="m 79.616,19.051 -69.152,0 c -0.828,0 -1.5,0.671 -1.5,1.5 l 0,37.744 c 0,0.829 0.672,1.5 1.5,1.5 l 9.639,0 c 0.37,1.153 0.89,2.286 1.536,3.335 -4.03,2.046 -6.804,6.222 -6.804,11.043 l 0,4.816 c 0,0.829 0.672,1.5 1.5,1.5 0.828,0 1.5,-0.671 1.5,-1.5 l 0,-4.816 c 0,-5.176 4.211,-9.388 9.388,-9.388 l 4.652,0 c 2.547,0 4.856,1.023 6.549,2.674 0.105,0.172 0.246,0.324 0.42,0.445 1.498,1.664 2.419,3.858 2.419,6.268 l 0,4.816 c 0,0.829 0.672,1.5 1.5,1.5 0.828,0 1.5,-0.671 1.5,-1.5 l 0,-4.816 c 0,-2.887 -1.001,-5.54 -2.663,-7.649 1.758,-2.381 4.56,-3.828 7.553,-3.828 l 4.651,0 c 5.177,0 9.389,4.211 9.389,9.388 l 0,4.817 c 0,0.829 0.672,1.5 1.5,1.5 0.828,0 1.5,-0.671 1.5,-1.5 l 0,-4.816 c 0,-5.212 -3.24,-9.674 -7.809,-11.5 0.147,-0.259 0.284,-0.522 0.416,-0.789 l 20.815,0 c 0.828,0 1.5,-0.671 1.5,-1.5 l 0,-37.744 c 0.001,-0.829 -0.671,-1.5 -1.499,-1.5 z M 27.223,61.785 c -0.923,0 -1.82,0.109 -2.687,0.302 -1.254,-1.814 -2.074,-4.164 -2.074,-6.054 0,-3.556 2.893,-6.448 6.448,-6.448 3.555,0 6.449,2.893 6.449,6.448 0,1.838 -0.75,4.065 -1.94,5.859 -0.507,-0.063 -1.02,-0.107 -1.544,-0.107 l -4.652,0 z m 12.233,2.611 c -0.909,-0.707 -1.916,-1.29 -3.001,-1.724 0.52,-0.918 0.945,-1.891 1.261,-2.877 l 5.163,0 c 0.213,0.432 0.447,0.852 0.7,1.261 -1.587,0.802 -3.001,1.929 -4.123,3.34 z m 14.349,-4.7 -4.651,0 c -0.911,0 -1.803,0.125 -2.675,0.319 -1.261,-1.816 -2.086,-4.173 -2.086,-6.071 0,-3.556 2.893,-6.448 6.448,-6.448 3.555,0 6.448,2.893 6.448,6.448 0,1.838 -0.75,4.065 -1.939,5.859 -0.507,-0.064 -1.02,-0.107 -1.545,-0.107 z m 24.311,-2.901 -18.208,0 c 0.242,-0.972 0.382,-1.938 0.382,-2.851 0,-5.21 -4.238,-9.448 -9.448,-9.448 -5.21,0 -9.448,4.238 -9.448,9.448 0,0.917 0.14,1.883 0.381,2.851 l -3.453,0 c 0.019,-0.256 0.039,-0.513 0.039,-0.763 0,-5.21 -4.239,-9.448 -9.449,-9.448 -5.21,0 -9.448,4.238 -9.448,9.448 0,0.25 0.021,0.507 0.039,0.763 l -7.538,0 0,-34.744 66.151,0 c 0,0 0,34.744 0,34.744 z"
       id="path14"
       inkscape:connector-curvature="0"
       style="fill:#2e2e2e;fill-opacity:1" /><path
       d="m 52.827,34.402 c -0.176,0.719 -0.28,1.465 -0.28,2.237 0,5.189 4.222,9.411 9.41,9.411 5.188,0 9.41,-4.222 9.41,-9.411 0,-5.148 -4.157,-9.339 -9.29,-9.404 -0.997,-1.89 -2.98,-3.183 -5.262,-3.183 -3.28,0 -5.949,2.668 -5.949,5.949 10e-4,1.745 0.76,3.311 1.961,4.401 z m 6.859,-3.75 c -0.298,1.312 -1.469,2.297 -2.87,2.297 -0.029,0 -0.056,-0.008 -0.085,-0.009 0.731,-1.029 1.757,-1.832 2.955,-2.288 z m 8.682,5.987 c 0,3.535 -2.876,6.411 -6.41,6.411 -3.534,0 -6.41,-2.876 -6.41,-6.411 0,-0.276 0.023,-0.547 0.058,-0.814 0.391,0.081 0.796,0.125 1.211,0.125 3.185,0 5.785,-2.518 5.934,-5.666 3.16,0.391 5.617,3.089 5.617,6.355 z M 56.816,27.052 c 0.747,0 1.423,0.288 1.943,0.748 -1.864,0.677 -3.458,1.918 -4.562,3.527 -0.204,-0.401 -0.33,-0.847 -0.33,-1.327 0,-1.625 1.323,-2.948 2.949,-2.948 z"
       id="path16"
       inkscape:connector-curvature="0"
       style="fill:#2e2e2e;fill-opacity:1" /><path
       d="m 28.256,43.373 c 0.293,0.293 0.677,0.439 1.061,0.439 0.384,0 0.768,-0.146 1.061,-0.439 l 5.251,-5.251 c 0.586,-0.585 0.586,-1.536 0,-2.121 L 30.378,30.75 c -0.586,-0.586 -1.535,-0.586 -2.121,0 l -5.251,5.251 c -0.586,0.585 -0.586,1.536 0,2.121 l 5.25,5.251 z m 1.061,-9.442 3.13,3.13 -3.13,3.13 -3.13,-3.13 3.13,-3.13 z"
       id="path18"
       inkscape:connector-curvature="0"
       style="fill:#2e2e2e;fill-opacity:1" /></g></svg>