<?xml version="1.0" encoding="UTF-8" standalone="no"?>
<svg
   xmlns:dc="http://purl.org/dc/elements/1.1/"
   xmlns:cc="http://creativecommons.org/ns#"
   xmlns:rdf="http://www.w3.org/1999/02/22-rdf-syntax-ns#"
   xmlns:svg="http://www.w3.org/2000/svg"
   xmlns="http://www.w3.org/2000/svg"
   xmlns:sodipodi="http://sodipodi.sourceforge.net/DTD/sodipodi-0.dtd"
   xmlns:inkscape="http://www.inkscape.org/namespaces/inkscape"
   version="1.1"
   x="0px"
   y="0px"
   viewBox="0 0 74.653 73.373001"
   enable-background="new 0 0 90 90"
   xml:space="preserve"
   id="svg2"
   inkscape:version="0.91 r13725"
   sodipodi:docname="light-bulb.svg"
   width="74.653"
   height="73.373001"><metadata
     id="metadata32"><rdf:RDF><cc:Work
         rdf:about=""><dc:format>image/svg+xml</dc:format><dc:type
           rdf:resource="http://purl.org/dc/dcmitype/StillImage" /><dc:title /></cc:Work></rdf:RDF></metadata><defs
     id="defs30" /><sodipodi:namedview
     pagecolor="#ffffff"
     bordercolor="#666666"
     borderopacity="1"
     objecttolerance="10"
     gridtolerance="10"
     guidetolerance="10"
     inkscape:pageopacity="0"
     inkscape:pageshadow="2"
     inkscape:window-width="731"
     inkscape:window-height="480"
     id="namedview28"
     showgrid="false"
     fit-margin-top="0"
     fit-margin-left="0"
     fit-margin-right="0"
     fit-margin-bottom="0"
     inkscape:zoom="2.0977778"
     inkscape:cx="37.307"
     inkscape:cy="25.441"
     inkscape:window-x="397"
     inkscape:window-y="232"
     inkscape:window-maximized="0"
     inkscape:current-layer="svg2" /><g
     id="g4"
     transform="translate(-7.693,-8.318)"
     style="fill:#2e2e2e;fill-opacity:1"><path
       d="m 44.713,24.995 c -10.972,0 -19.897,8.926 -19.897,19.897 0,6.326 3.021,12.271 8.109,16.02 0.846,3.44 2.698,6.804 5.023,9.094 0.281,0.276 0.659,0.431 1.053,0.431 l 11.424,0 c 0.394,0 0.771,-0.155 1.053,-0.431 2.325,-2.29 4.177,-5.653 5.024,-9.094 5.088,-3.75 8.108,-9.694 8.108,-16.02 0,-10.971 -8.925,-19.897 -19.897,-19.897 z m 9.6,33.794 c -0.314,0.218 -0.534,0.547 -0.613,0.921 -0.603,2.829 -2.079,5.732 -3.912,7.727 l -10.15,0 c -1.833,-1.995 -3.31,-4.898 -3.911,-7.726 -0.079,-0.375 -0.299,-0.704 -0.613,-0.922 -4.569,-3.163 -7.298,-8.358 -7.298,-13.897 0,-9.317 7.58,-16.897 16.897,-16.897 9.317,0 16.897,7.58 16.897,16.897 0,5.539 -2.727,10.734 -7.297,13.897 z"
       id="path6"
       inkscape:connector-curvature="0"
       style="fill:#2e2e2e;fill-opacity:1" /><path
       d="m 51.421,43.193 c -0.117,-0.021 -0.233,-0.023 -0.348,-0.016 -0.07,-0.002 -0.137,0.018 -0.207,0.027 -0.019,0.004 -0.037,0.006 -0.056,0.011 -0.304,0.047 -0.599,0.161 -0.833,0.395 l -4.715,4.715 -4.715,-4.715 c -0.324,-0.324 -0.756,-0.45 -1.179,-0.416 -0.154,-0.023 -0.313,-0.028 -0.474,0 -0.816,0.144 -1.361,0.921 -1.218,1.737 l 3.277,18.616 c 0.128,0.728 0.762,1.24 1.476,1.24 0.087,0 0.174,-0.008 0.262,-0.023 0.816,-0.144 1.361,-0.921 1.218,-1.737 l -2.524,-14.337 2.817,2.817 c 0.293,0.293 0.677,0.439 1.061,0.439 0.384,0 0.768,-0.146 1.061,-0.439 l 2.562,-2.562 -2.479,14.082 c -0.144,0.816 0.401,1.594 1.218,1.737 0.088,0.016 0.175,0.023 0.262,0.023 0.714,0 1.348,-0.513 1.476,-1.24 L 52.64,44.931 c 0.142,-0.816 -0.403,-1.594 -1.219,-1.738 z"
       id="path8"
       inkscape:connector-curvature="0"
       style="fill:#2e2e2e;fill-opacity:1" /><path
       d="m 49.609,71.694 -10.126,0 c -1.164,0 -2.108,0.944 -2.108,2.108 0,1.164 0.944,2.108 2.108,2.108 l 10.126,0 c 1.164,0 2.108,-0.944 2.108,-2.108 0,-1.164 -0.943,-2.108 -2.108,-2.108 z"
       id="path10"
       inkscape:connector-curvature="0"
       style="fill:#2e2e2e;fill-opacity:1" /><path
       d="m 48.271,77.475 -7.009,0 c -1.164,0 -2.108,0.944 -2.108,2.108 0,1.164 0.944,2.108 2.108,2.108 l 7.009,0 c 1.164,0 2.108,-0.944 2.108,-2.108 0,-1.164 -0.944,-2.108 -2.108,-2.108 z"
       id="path12"
       inkscape:connector-curvature="0"
       style="fill:#2e2e2e;fill-opacity:1" /><path
       d="m 80.847,43.339 -11.563,0 c -0.828,0 -1.5,0.671 -1.5,1.5 0,0.829 0.672,1.5 1.5,1.5 l 11.562,0 c 0.828,0 1.5,-0.671 1.5,-1.5 0,-0.829 -0.671,-1.5 -1.499,-1.5 z"
       id="path14"
       inkscape:connector-curvature="0"
       style="fill:#2e2e2e;fill-opacity:1" /><path
       d="m 20.756,43.339 -11.563,0 c -0.828,0 -1.5,0.671 -1.5,1.5 0,0.829 0.672,1.5 1.5,1.5 l 11.562,0 c 0.828,0 1.5,-0.671 1.5,-1.5 0,-0.829 -0.671,-1.5 -1.499,-1.5 z"
       id="path16"
       inkscape:connector-curvature="0"
       style="fill:#2e2e2e;fill-opacity:1" /><path
       d="m 44.324,22.881 c 0.828,0 1.5,-0.671 1.5,-1.5 l 0,-11.563 c 0,-0.829 -0.672,-1.5 -1.5,-1.5 -0.828,0 -1.5,0.671 -1.5,1.5 l 0,11.563 c 0,0.828 0.672,1.5 1.5,1.5 z"
       id="path18"
       inkscape:connector-curvature="0"
       style="fill:#2e2e2e;fill-opacity:1" /><path
       d="m 26.413,29.647 c 0.293,0.293 0.677,0.439 1.061,0.439 0.384,0 0.768,-0.146 1.061,-0.439 0.586,-0.586 0.586,-1.536 0,-2.121 L 20.358,19.35 c -0.586,-0.586 -1.535,-0.586 -2.121,0 -0.586,0.586 -0.586,1.536 0,2.121 l 8.176,8.176 z"
       id="path20"
       inkscape:connector-curvature="0"
       style="fill:#2e2e2e;fill-opacity:1" /><path
       d="m 62.892,30.086 c 0.384,0 0.768,-0.146 1.061,-0.439 l 8.176,-8.176 c 0.586,-0.586 0.586,-1.536 0,-2.121 -0.586,-0.586 -1.535,-0.586 -2.121,0 l -8.176,8.176 c -0.586,0.586 -0.586,1.536 0,2.121 0.292,0.293 0.676,0.439 1.06,0.439 z"
       id="path22"
       inkscape:connector-curvature="0"
       style="fill:#2e2e2e;fill-opacity:1" /></g></svg>