<?xml version="1.0" encoding="UTF-8" standalone="no"?>
<svg
   xmlns:dc="http://purl.org/dc/elements/1.1/"
   xmlns:cc="http://creativecommons.org/ns#"
   xmlns:rdf="http://www.w3.org/1999/02/22-rdf-syntax-ns#"
   xmlns:svg="http://www.w3.org/2000/svg"
   xmlns="http://www.w3.org/2000/svg"
   xmlns:sodipodi="http://sodipodi.sourceforge.net/DTD/sodipodi-0.dtd"
   xmlns:inkscape="http://www.inkscape.org/namespaces/inkscape"
   version="1.1"
   x="0px"
   y="0px"
   viewBox="0 0 71.491997 70.643997"
   enable-background="new 0 0 90 90"
   xml:space="preserve"
   id="svg2"
   inkscape:version="0.91 r13725"
   sodipodi:docname="meeting.svg"
   width="71.491997"
   height="70.643997"><metadata
     id="metadata14"><rdf:RDF><cc:Work
         rdf:about=""><dc:format>image/svg+xml</dc:format><dc:type
           rdf:resource="http://purl.org/dc/dcmitype/StillImage" /><dc:title /></cc:Work></rdf:RDF></metadata><defs
     id="defs12" /><sodipodi:namedview
     pagecolor="#ffffff"
     bordercolor="#666666"
     borderopacity="1"
     objecttolerance="10"
     gridtolerance="10"
     guidetolerance="10"
     inkscape:pageopacity="0"
     inkscape:pageshadow="2"
     inkscape:window-width="731"
     inkscape:window-height="480"
     id="namedview10"
     showgrid="false"
     fit-margin-top="0"
     fit-margin-left="0"
     fit-margin-right="0"
     fit-margin-bottom="0"
     inkscape:zoom="2.0977778"
     inkscape:cx="35.747"
     inkscape:cy="24.77"
     inkscape:window-x="0"
     inkscape:window-y="27"
     inkscape:window-maximized="0"
     inkscape:current-layer="svg2" /><path
     d="m 67.213,25.234 c 1.171,-1.807 1.878,-3.986 1.878,-5.909 0,-4.227 -3.438,-7.666 -7.666,-7.666 -4.228,0 -7.666,3.439 -7.666,7.666 0,1.743 0.596,3.722 1.589,5.43 -0.992,0.486 -1.899,1.088 -2.659,1.775 L 51.814,22.623 C 51.661,21.938 51.052,21.451 50.35,21.451 l -3.523,0 C 46.715,17.525 44.322,14.165 40.924,12.652 41.766,11.051 42.262,9.259 42.262,7.666 42.262,3.439 38.824,0 34.596,0 30.368,0 26.93,3.439 26.93,7.666 c 0,1.735 0.577,3.679 1.55,5.371 -2.981,1.654 -5.02,4.795 -5.124,8.415 l -2.899,0 c -0.702,0 -1.311,0.487 -1.464,1.172 l -0.766,3.42 c -0.627,-0.488 -1.331,-0.921 -2.082,-1.289 0.993,-1.708 1.588,-3.687 1.588,-5.43 0,-4.227 -3.438,-7.666 -7.665,-7.666 -4.228,0 -7.666,3.439 -7.666,7.666 0,1.924 0.706,4.103 1.877,5.909 C 1.697,27.032 0,30.018 0,33.397 l 0,18.782 c 0,0.829 0.672,1.5 1.5,1.5 l 10.542,0 -0.533,2.38 c -0.1,0.444 0.009,0.91 0.293,1.265 0.285,0.355 0.716,0.562 1.171,0.562 l 8.211,0 c -0.993,1.837 -1.559,3.937 -1.559,6.168 l 0,5.09 c 0,0.829 0.672,1.5 1.5,1.5 0.828,0 1.5,-0.671 1.5,-1.5 l 0,-5.09 c 0,-5.519 4.489,-10.008 10.008,-10.008 l 4.916,0 c 5.519,0 10.008,4.489 10.008,10.008 l 0,5.09 c 0,0.829 0.672,1.5 1.5,1.5 0.828,0 1.5,-0.671 1.5,-1.5 l 0,-5.09 c 0,-2.231 -0.566,-4.331 -1.559,-6.168 l 8.836,0 c 0.455,0 0.886,-0.207 1.171,-0.562 0.284,-0.355 0.393,-0.821 0.293,-1.265 l -0.533,-2.38 11.227,0 c 0.828,0 1.5,-0.671 1.5,-1.5 l 0,-18.782 c 0,-3.378 -1.697,-6.364 -4.279,-8.163 z M 56.759,19.325 c 0,-2.573 2.093,-4.666 4.666,-4.666 2.573,0 4.666,2.093 4.666,4.666 0,1.428 -0.634,3.21 -1.598,4.571 -0.932,-0.29 -1.921,-0.446 -2.947,-0.446 l -0.812,0 c -0.826,0 -1.664,0.104 -2.49,0.287 -0.909,-1.347 -1.485,-3.029 -1.485,-4.412 z M 29.93,7.665 c 0,-2.573 2.093,-4.666 4.666,-4.666 2.573,0 4.666,2.093 4.666,4.666 0,1.303 -0.511,2.875 -1.332,4.18 -0.34,-0.035 -0.685,-0.054 -1.035,-0.054 l -3.609,0 c -0.663,0 -1.309,0.068 -1.936,0.192 -0.864,-1.324 -1.42,-2.979 -1.42,-4.318 z m 3.356,7.126 3.609,0 c 3.734,0 6.78,2.963 6.932,6.66 l -17.472,0 c 0.152,-3.698 3.197,-6.66 6.931,-6.66 z M 5.402,19.325 c 0,-2.573 2.093,-4.666 4.666,-4.666 2.572,0 4.665,2.093 4.665,4.666 0,1.382 -0.576,3.065 -1.485,4.413 -0.826,-0.183 -1.664,-0.288 -2.49,-0.288 l -0.812,0 C 8.92,23.45 7.931,23.606 6.999,23.896 6.036,22.536 5.402,20.754 5.402,19.325 Z M 3,50.679 3,33.397 c 0,-3.83 3.116,-6.946 6.946,-6.946 l 0.812,0 c 2.545,0 5.399,1.328 6.699,3.034 l -4.744,21.194 -9.713,0 z m 29.633,0.368 c -0.989,0 -1.949,0.121 -2.875,0.331 -1.354,-1.938 -2.242,-4.464 -2.242,-6.495 0,-3.805 3.096,-6.901 6.9,-6.901 3.806,0 6.901,3.096 6.901,6.901 0,1.973 -0.811,4.367 -2.096,6.285 -0.549,-0.071 -1.105,-0.12 -1.673,-0.12 l -4.915,0 0,-0.001 z m 14.133,3.84 c -1.267,-1.274 -2.8,-2.277 -4.502,-2.942 1.284,-2.231 2.053,-4.8 2.053,-7.063 0,-5.459 -4.441,-9.901 -9.901,-9.901 -5.459,0 -9.9,4.441 -9.9,9.901 0,2.444 0.879,5.205 2.336,7.537 -1.276,0.637 -2.44,1.466 -3.436,2.467 l -8.57,0 6.812,-30.437 27.49,0 6.812,30.437 -9.194,10e-4 0,0 z m 21.726,-4.208 -10.399,0 -4.585,-20.486 c 0.08,-0.084 0.154,-0.175 0.215,-0.279 1.11,-1.91 4.255,-3.463 7.012,-3.463 l 0.812,0 c 3.83,0 6.946,3.116 6.946,6.946 l -10e-4,17.282 0,0 z"
     id="path4"
     inkscape:connector-curvature="0"
     style="fill:#2e2e2e;fill-opacity:1" /></svg>