<?xml version="1.0" encoding="UTF-8" standalone="no"?>
<svg
   xmlns:dc="http://purl.org/dc/elements/1.1/"
   xmlns:cc="http://creativecommons.org/ns#"
   xmlns:rdf="http://www.w3.org/1999/02/22-rdf-syntax-ns#"
   xmlns:svg="http://www.w3.org/2000/svg"
   xmlns="http://www.w3.org/2000/svg"
   xmlns:sodipodi="http://sodipodi.sourceforge.net/DTD/sodipodi-0.dtd"
   xmlns:inkscape="http://www.inkscape.org/namespaces/inkscape"
   version="1.1"
   x="0px"
   y="0px"
   viewBox="0 0 90.653632 71.278"
   enable-background="new 0 0 90 90"
   xml:space="preserve"
   id="svg2"
   inkscape:version="0.91 r13725"
   sodipodi:docname="project-manager.svg"
   width="90.653633"
   height="71.278"><metadata
     id="metadata26"><rdf:RDF><cc:Work
         rdf:about=""><dc:format>image/svg+xml</dc:format><dc:type
           rdf:resource="http://purl.org/dc/dcmitype/StillImage" /><dc:title></dc:title></cc:Work></rdf:RDF></metadata><defs
     id="defs24" /><sodipodi:namedview
     pagecolor="#ffffff"
     bordercolor="#666666"
     borderopacity="1"
     objecttolerance="10"
     gridtolerance="10"
     guidetolerance="10"
     inkscape:pageopacity="0"
     inkscape:pageshadow="2"
     inkscape:window-width="1600"
     inkscape:window-height="836"
     id="namedview22"
     showgrid="false"
     fit-margin-top="0"
     fit-margin-left="20"
     fit-margin-right="0"
     fit-margin-bottom="0"
     inkscape:zoom="2.0977778"
     inkscape:cx="242.18684"
     inkscape:cy="0.59819727"
     inkscape:window-x="0"
     inkscape:window-y="27"
     inkscape:window-maximized="1"
     inkscape:current-layer="svg2" /><path
     stroke-miterlimit="10"
     d="M 360.186,-34.409"
     id="path4"
     inkscape:connector-curvature="0"
     style="fill:none;stroke:#000000;stroke-width:3;stroke-linecap:round;stroke-linejoin:round;stroke-miterlimit:10" /><g
     id="g6"
     transform="translate(9.5513131,-9.2989999)"
     style="fill:#2e2e2e;fill-opacity:1"><path
       d="m 80.186,25.17 -6.914,-6.914 c -0.562,-0.562 -1.559,-0.562 -2.121,0 l -9.626,9.626 0,-11.688 c 0,-0.829 -0.672,-1.5 -1.5,-1.5 l -11.144,0 0,-3.895 c 0,-0.829 -0.672,-1.5 -1.5,-1.5 l -23.265,0 c -0.828,0 -1.5,0.671 -1.5,1.5 l 0,3.895 -11.144,0 c -0.828,0 -1.5,0.671 -1.5,1.5 l 0,62.883 c 0,0.829 0.672,1.5 1.5,1.5 l 48.554,0 c 0.828,0 1.5,-0.671 1.5,-1.5 l 0,-32.9 c 0,-0.07 -0.011,-0.137 -0.021,-0.204 L 80.187,27.291 c 0.585,-0.585 0.585,-1.535 -10e-4,-2.121 z M 47.791,55.445 42.998,50.652 65.642,28.008 70.462,32.774 47.791,55.445 Z M 40.75,52.867 c 0.03,-0.026 0.069,-0.036 0.097,-0.065 l 0.029,-0.029 4.793,4.793 -0.029,0.029 c -0.029,0.029 -0.039,0.067 -0.065,0.097 l -9.858,5.033 5.033,-9.858 z m -15.134,-40.568 20.265,0 0,7.453 -20.265,0 0,-7.453 z m 32.909,65.278 -45.553,0 0,-59.883 9.645,0 0,3.558 c 0,0.829 0.672,1.5 1.5,1.5 l 23.265,0 c 0.828,0 1.5,-0.671 1.5,-1.5 l 0,-3.558 9.645,0 0,13.188 -19.8,19.799 c -0.027,0.027 -0.037,0.064 -0.062,0.093 -0.203,0.137 -0.378,0.32 -0.497,0.553 l -7.227,14.157 c -0.296,0.579 -0.185,1.283 0.275,1.743 0.288,0.288 0.672,0.439 1.061,0.439 0.232,0 0.466,-0.054 0.682,-0.164 l 14.156,-7.228 c 0.233,-0.119 0.416,-0.294 0.553,-0.496 0.029,-0.025 0.066,-0.035 0.094,-0.062 l 10.764,-10.764 -0.001,28.625 0,0 z m 14.058,-46.924 -4.82,-4.766 4.449,-4.449 4.793,4.793 -4.422,4.422 z"
       id="path8"
       inkscape:connector-curvature="0"
       style="fill:#2e2e2e;fill-opacity:1" /><path
       d="m 19.457,29.79 32.959,0 c 0.828,0 1.5,-0.671 1.5,-1.5 0,-0.829 -0.672,-1.5 -1.5,-1.5 l -32.959,0 c -0.828,0 -1.5,0.671 -1.5,1.5 0,0.829 0.672,1.5 1.5,1.5 z"
       id="path10"
       inkscape:connector-curvature="0"
       style="fill:#2e2e2e;fill-opacity:1" /><path
       d="m 19.457,35.45 32.959,0 c 0.828,0 1.5,-0.671 1.5,-1.5 0,-0.829 -0.672,-1.5 -1.5,-1.5 l -32.959,0 c -0.828,0 -1.5,0.671 -1.5,1.5 0,0.829 0.672,1.5 1.5,1.5 z"
       id="path12"
       inkscape:connector-curvature="0"
       style="fill:#2e2e2e;fill-opacity:1" /><path
       d="m 27.08,38.808 -7.472,0 c -0.828,0 -1.5,0.671 -1.5,1.5 l 0,7.473 c 0,0.829 0.672,1.5 1.5,1.5 l 7.472,0 c 0.828,0 1.5,-0.671 1.5,-1.5 l 0,-7.473 c 0,-0.828 -0.672,-1.5 -1.5,-1.5 z m -1.5,7.473 -4.472,0 0,-4.473 4.472,0 0,4.473 z"
       id="path14"
       inkscape:connector-curvature="0"
       style="fill:#2e2e2e;fill-opacity:1" /><path
       d="m 27.08,52.113 -7.472,0 c -0.828,0 -1.5,0.671 -1.5,1.5 l 0,7.473 c 0,0.829 0.672,1.5 1.5,1.5 l 7.472,0 c 0.828,0 1.5,-0.671 1.5,-1.5 l 0,-7.473 c 0,-0.829 -0.672,-1.5 -1.5,-1.5 z m -1.5,7.473 -4.472,0 0,-4.473 4.472,0 0,4.473 z"
       id="path16"
       inkscape:connector-curvature="0"
       style="fill:#2e2e2e;fill-opacity:1" /></g></svg>