<?xml version="1.0" encoding="UTF-8" standalone="no"?>
<!-- Created with Inkscape (http://www.inkscape.org/) -->

<svg
   xmlns:dc="http://purl.org/dc/elements/1.1/"
   xmlns:cc="http://creativecommons.org/ns#"
   xmlns:rdf="http://www.w3.org/1999/02/22-rdf-syntax-ns#"
   xmlns:svg="http://www.w3.org/2000/svg"
   xmlns="http://www.w3.org/2000/svg"
   xmlns:sodipodi="http://sodipodi.sourceforge.net/DTD/sodipodi-0.dtd"
   xmlns:inkscape="http://www.inkscape.org/namespaces/inkscape"
   width="61.002331"
   height="65.763351"
   id="svg2"
   version="1.1"
   inkscape:version="0.91 r13725"
   sodipodi:docname="ojh_logo.svg">
  <defs
     id="defs4" />
  <sodipodi:namedview
     id="base"
     pagecolor="#ffffff"
     bordercolor="#666666"
     borderopacity="1.0"
     inkscape:pageopacity="0.0"
     inkscape:pageshadow="2"
     inkscape:zoom="0.70710678"
     inkscape:cx="-36.539069"
     inkscape:cy="-372.84202"
     inkscape:document-units="px"
     inkscape:current-layer="text2985"
     showgrid="false"
     inkscape:window-width="1600"
     inkscape:window-height="836"
     inkscape:window-x="0"
     inkscape:window-y="27"
     inkscape:window-maximized="1"
     showguides="true"
     inkscape:guide-bbox="true"
     fit-margin-top="0"
     fit-margin-left="0"
     fit-margin-right="0"
     fit-margin-bottom="0" />
  <metadata
     id="metadata7">
    <rdf:RDF>
      <cc:Work
         rdf:about="">
        <dc:format>image/svg+xml</dc:format>
        <dc:type
           rdf:resource="http://purl.org/dc/dcmitype/StillImage" />
        <dc:title></dc:title>
      </cc:Work>
    </rdf:RDF>
  </metadata>
  <g
     inkscape:label="Layer 1"
     inkscape:groupmode="layer"
     id="layer1"
     transform="translate(-203.30087,-345.03157)">
    <g
       style="font-style:normal;font-weight:normal;font-size:14px;line-height:125%;font-family:Sans;text-align:center;letter-spacing:0px;word-spacing:0px;text-anchor:middle;fill:#000000;fill-opacity:1;stroke:none"
       id="text2985"
       transform="matrix(7.1523341,0,0,7.1523341,-1555.0587,-946.5292)"
       inkscape:export-filename="/home/nicky/Dropbox/Kabu/Internal/oli_website/ojh_logo.png"
       inkscape:export-xdpi="16.07695"
       inkscape:export-ydpi="16.07695">
      <path
         id="path3091"
         style="font-variant:normal;font-stretch:normal;font-size:40px;font-family:BlackJack;-inkscape-font-specification:BlackJack;fill:#ffffff"
         d="m 249.07421,182.98982 c -0.10658,1e-5 -0.18493,0.0459 -0.24355,0.13114 -0.0586,0.0799 -0.0937,0.16636 -0.0937,0.26227 0,0.096 0.0351,0.18951 0.0937,0.27476 0.0586,0.0853 0.13697,0.12489 0.24355,0.12489 0.10657,0 0.19116,-0.0396 0.24978,-0.12489 0.0586,-0.0853 0.0874,-0.17884 0.0874,-0.27476 -1e-5,-0.0959 -0.0289,-0.18234 -0.0874,-0.26227 -0.0586,-0.0853 -0.14321,-0.13113 -0.24978,-0.13114 z m 2.5923,-2.41065 c -0.0675,1e-5 -0.12938,0.0171 -0.19203,0.0508 -0.0626,0.0289 -0.12206,0.0712 -0.17508,0.12425 -0.0482,0.0482 -0.0978,0.10031 -0.14119,0.15814 -0.0385,0.0578 -0.0671,0.11725 -0.096,0.17508 -0.11567,0.22651 -0.2174,0.49436 -0.29933,0.80762 -0.0819,0.30844 -0.15114,0.63405 -0.20896,0.9714 -0.0578,0.33255 -0.10912,0.66064 -0.15249,0.98835 -0.0385,0.32773 -0.0727,0.62081 -0.10166,0.88105 -0.015,0.14416 -0.034,0.28692 -0.0508,0.42923 -0.31285,0.41911 -0.54775,0.68146 -0.8754,0.9714 0.002,-0.0378 0.004,-0.0753 0.006,-0.11295 0.0193,-0.41447 0.0283,-0.78406 0.0283,-1.10696 l 0,-0.13554 c 0,-0.0578 -0.002,-0.10994 -0.0113,-0.15813 -0.01,-0.0531 -0.0332,-0.10264 -0.0622,-0.1412 -0.029,-0.0385 -0.0656,-0.0565 -0.11859,-0.0565 -0.0434,0 -0.093,0.0163 -0.1412,0.0452 -0.0434,0.029 -0.0857,0.0639 -0.12424,0.1073 -0.0385,0.0434 -0.0671,0.0873 -0.096,0.13554 -0.0241,0.0482 -0.0412,0.0913 -0.0508,0.1299 l -0.0452,0.22027 c -0.21709,0.58661 -0.43832,1.19745 -1.1013,1.2086 0.0127,-0.0269 0.028,-0.0516 0.0395,-0.079 0.0626,-0.14939 0.10662,-0.30407 0.13555,-0.46311 0.0289,-0.16385 0.0452,-0.32665 0.0452,-0.4857 0,-0.11084 -0.0154,-0.22319 -0.0395,-0.33886 -0.0193,-0.11566 -0.0542,-0.22554 -0.1073,-0.32192 -0.0482,-0.0964 -0.11657,-0.17455 -0.20332,-0.23721 -0.0868,-0.0627 -0.19828,-0.0961 -0.33322,-0.0961 -0.21687,0 -0.40739,0.0684 -0.57606,0.20332 -0.16386,0.13013 -0.30227,0.29293 -0.41793,0.48571 -0.11567,0.19277 -0.20844,0.39955 -0.2711,0.62124 -0.0578,0.2217 -0.0847,0.42682 -0.0847,0.60995 0,0.10603 0.01,0.21756 0.0339,0.33322 0.0241,0.11566 0.0656,0.21906 0.11861,0.31062 0.0531,0.0916 0.12221,0.16243 0.20896,0.22027 0.0916,0.0626 0.20309,0.096 0.33322,0.096 0.1012,0 0.19729,-0.0179 0.29368,-0.0565 0.0963,-0.0337 0.18916,-0.0769 0.27108,-0.1299 0.13977,-0.0916 0.25378,-0.20309 0.35017,-0.33322 0.006,-0.008 0.0115,-0.015 0.0169,-0.0226 0.66546,0.0412 1.14053,-0.48684 1.38368,-0.98835 0.005,0.14459 0.006,0.29113 0.006,0.44053 0.005,0.14458 0.005,0.28465 0,0.42923 l 0,0.0734 -0.1299,0.0904 c -0.18795,0.1253 -0.38495,0.27184 -0.58736,0.44052 -0.20724,0.16868 -0.39692,0.35106 -0.57042,0.55347 -0.17349,0.20241 -0.31838,0.41816 -0.42922,0.64949 -0.11567,0.23134 -0.16944,0.47147 -0.16944,0.71726 0,0.0963 0.01,0.19082 0.0339,0.28239 0.0241,0.0963 0.0656,0.18185 0.11861,0.25415 0.0531,0.0722 0.11491,0.1317 0.19202,0.17507 0.0771,0.0482 0.17154,0.0678 0.28238,0.0678 0.15423,-1e-5 0.30077,-0.0367 0.44053,-0.11861 0.13976,-0.0771 0.26025,-0.17071 0.36145,-0.27673 0.23133,-0.23616 0.41288,-0.54467 0.54783,-0.92058 0.13494,-0.37109 0.2375,-0.76109 0.30498,-1.18037 0.0425,-0.26392 0.0741,-0.52774 0.0961,-0.79068 0.30623,-0.22932 0.58886,-0.48527 0.83021,-0.72856 -0.0135,0.11724 -0.0247,0.23166 -0.0395,0.35016 -0.0144,0.1253 -0.0315,0.25309 -0.0508,0.3784 -0.0193,0.12048 -0.0283,0.24179 -0.0283,0.3671 0,0.0385 9e-4,0.0881 0.006,0.14119 0.005,0.0482 0.0203,0.0922 0.0395,0.13554 0.0193,0.0434 0.0388,0.0784 0.0678,0.10731 0.0337,0.0337 0.0769,0.0508 0.1299,0.0508 0.0531,0 0.10346,-0.0163 0.14684,-0.0452 0.0434,-0.029 0.0784,-0.0639 0.10731,-0.1073 0.0337,-0.0434 0.0663,-0.0874 0.0904,-0.13555 0.0289,-0.0482 0.0485,-0.0922 0.0678,-0.13555 0.0289,-0.0626 0.0802,-0.16521 0.15249,-0.30498 0.0771,-0.14457 0.1634,-0.30738 0.2598,-0.48569 0.1012,-0.17832 0.21189,-0.35988 0.32756,-0.54783 0.11566,-0.19278 0.22718,-0.37185 0.33321,-0.53089 0.10603,-0.15904 0.20211,-0.28848 0.29368,-0.38969 0.0916,-0.1012 0.16726,-0.15249 0.22027,-0.15249 0.0385,0 0.0573,0.0252 0.0622,0.0734 0.005,0.0434 0.0113,0.0776 0.0113,0.10166 l 0,0.0565 c -0.0241,0.26025 -0.0558,0.52479 -0.0847,0.78503 -0.0241,0.26025 -0.0339,0.51914 -0.0339,0.77938 0,0.0675 0,0.15543 0,0.2711 0.005,0.11084 0.0211,0.22154 0.0452,0.32756 0.0241,0.10603 0.0591,0.19963 0.1073,0.27674 0.0531,0.0771 0.13034,0.11295 0.23156,0.11295 0.16867,0 0.33397,-0.0448 0.50264,-0.14119 0.1735,-0.0916 0.3363,-0.21039 0.48571,-0.35016 0.1494,-0.14458 0.28614,-0.29925 0.40664,-0.46311 0.12047,-0.16386 0.21573,-0.31206 0.28803,-0.45182 0.01,-0.0193 0.0186,-0.0364 0.0283,-0.0508 0.01,-0.0193 0.0169,-0.0437 0.0169,-0.0678 -10e-6,-0.0385 -0.008,-0.0727 -0.0226,-0.10166 -0.0144,-0.029 -0.0413,-0.0452 -0.0847,-0.0452 -0.0434,0 -0.0849,0.0252 -0.1186,0.0734 -0.0289,0.0434 -0.0541,0.0784 -0.0734,0.10731 -0.0482,0.0771 -0.1174,0.17884 -0.20896,0.29932 -0.0916,0.12049 -0.18767,0.23367 -0.29368,0.34452 -0.10603,0.11085 -0.21756,0.21174 -0.33322,0.29368 -0.11085,0.0819 -0.21507,0.1186 -0.31627,0.1186 -0.0482,0 -0.0897,-0.009 -0.1186,-0.0283 -0.0241,-0.0241 -0.042,-0.0502 -0.0565,-0.0791 -0.01,-0.0337 -0.0178,-0.0688 -0.0226,-0.10731 0,-0.0385 0,-0.0736 0,-0.1073 0,-0.30362 0.0188,-0.60483 0.0622,-0.90364 0.0482,-0.30361 0.0734,-0.6113 0.0734,-0.91493 0,-0.0675 -0.008,-0.13667 -0.0226,-0.20896 -0.01,-0.0771 -0.0284,-0.14631 -0.0622,-0.20897 -0.0289,-0.0675 -0.0712,-0.1204 -0.12425,-0.16378 -0.0531,-0.0434 -0.12139,-0.0678 -0.20332,-0.0678 -0.11084,0 -0.22485,0.0423 -0.35016,0.12425 -0.12048,0.0771 -0.24097,0.1805 -0.36145,0.31062 -0.11567,0.13013 -0.23449,0.27584 -0.35015,0.43488 -0.11085,0.15904 -0.21425,0.32184 -0.31063,0.4857 -0.0964,0.15904 -0.18269,0.30723 -0.25979,0.45182 -0.0771,0.13976 -0.13736,0.25941 -0.18073,0.3558 0.01,-0.0482 0.0195,-0.13283 0.0339,-0.2485 0.0193,-0.12048 0.0429,-0.24262 0.0622,-0.37274 0.0241,-0.13013 0.0429,-0.24978 0.0622,-0.35581 0.0241,-0.11085 0.042,-0.18005 0.0565,-0.20896 0.0578,-0.11085 0.11807,-0.22237 0.18073,-0.33322 0.0626,-0.11085 0.12289,-0.2232 0.18072,-0.33886 0.24097,-0.47712 0.44527,-0.96884 0.60431,-1.4797 0.16385,-0.51085 0.24284,-1.03594 0.24285,-1.57572 -1e-5,-0.0578 -0.002,-0.1262 -0.0113,-0.20331 -0.01,-0.0819 -0.0332,-0.15843 -0.0622,-0.22591 -0.029,-0.0722 -0.0656,-0.13253 -0.1186,-0.18073 -0.0482,-0.0482 -0.11575,-0.0734 -0.19768,-0.0734 z m 0.0339,0.37275 c 0.0241,0 0.0412,0.0107 0.0508,0.0395 0.01,0.029 0.0178,0.0631 0.0226,0.10166 0.01,0.0385 0.0169,0.08 0.0169,0.1186 l 0,0.079 c 0,0.2217 -0.0334,0.4708 -0.096,0.7455 -0.0626,0.27471 -0.14082,0.55069 -0.23721,0.83021 -0.0916,0.27953 -0.19496,0.54739 -0.31062,0.80762 -0.11567,0.26026 -0.22803,0.49144 -0.33886,0.68903 0.005,-0.0819 0.0154,-0.22598 0.0395,-0.42358 0.029,-0.20242 0.0631,-0.42712 0.10166,-0.67773 0.0434,-0.25542 0.0939,-0.51514 0.14684,-0.78503 0.0578,-0.2747 0.11807,-0.53028 0.18073,-0.75679 0.0675,-0.22651 0.13583,-0.40889 0.20331,-0.55347 0.0722,-0.14459 0.14315,-0.21462 0.22026,-0.21462 z m -4.50688,3.77832 c 0.0771,0 0.13818,0.0252 0.18639,0.0734 0.0482,0.0434 0.0897,0.0963 0.11859,0.16378 0.0289,0.0626 0.0468,0.13186 0.0565,0.20897 0.01,0.0771 0.0169,0.14548 0.0169,0.20332 0,0.11085 -0.009,0.22967 -0.0283,0.35015 -0.0193,0.11566 -0.0527,0.22802 -0.096,0.33886 -0.0179,0.0515 -0.0379,0.10308 -0.0622,0.15249 -0.26151,-0.10069 -0.49986,-0.36567 -0.59866,-0.90928 -0.0255,-0.14041 -0.0554,-0.23548 -0.0283,-0.32756 0.002,-0.002 0.004,-0.004 0.006,-0.006 5.4e-4,-0.002 -5.5e-4,-0.004 0,-0.006 0.0211,-0.027 0.0452,-0.0542 0.0678,-0.079 0.10603,-0.11085 0.22651,-0.16379 0.36145,-0.16379 z m -0.70031,0.77374 c 0.0941,0.42337 0.30171,0.84976 0.68902,1.01659 -0.0385,0.0422 -0.0785,0.0824 -0.12425,0.11859 -0.0482,0.0385 -0.1003,0.0727 -0.15814,0.10166 -0.0531,0.0241 -0.11242,0.0339 -0.17508,0.0339 -0.0723,0 -0.13253,-0.0179 -0.18072,-0.0565 -0.0482,-0.0434 -0.084,-0.0947 -0.11295,-0.15249 -0.0241,-0.0578 -0.0412,-0.1189 -0.0508,-0.18637 -0.01,-0.0723 -0.0169,-0.13984 -0.0169,-0.19767 0,-0.11084 0.0171,-0.24842 0.0508,-0.41228 0.0213,-0.0902 0.0491,-0.17814 0.079,-0.26544 z m 2.32686,1.34979 c -0.0144,0.0964 -0.034,0.22584 -0.0678,0.38969 -0.029,0.16387 -0.0712,0.34377 -0.12424,0.53654 -0.0482,0.19278 -0.10844,0.38894 -0.18073,0.58172 -0.0675,0.19759 -0.1448,0.37184 -0.23155,0.53088 -0.0916,0.15904 -0.19331,0.28848 -0.29934,0.38969 -0.10602,0.1012 -0.21838,0.15249 -0.33886,0.15249 -0.0531,0 -0.097,-0.0107 -0.13554,-0.0395 -0.0385,-0.0241 -0.0719,-0.0583 -0.0961,-0.10165 -0.0241,-0.0385 -0.0412,-0.0882 -0.0508,-0.14119 -0.01,-0.0482 -0.0113,-0.0922 -0.0113,-0.13555 0,-0.1976 0.053,-0.40273 0.16378,-0.60995 0.10603,-0.20724 0.24196,-0.40588 0.401,-0.59866 0.15421,-0.19277 0.31867,-0.3735 0.49699,-0.54218 0.17832,-0.16386 0.33465,-0.30144 0.47441,-0.41229 z"
         inkscape:connector-curvature="0" />
    </g>
  </g>
</svg>
